<svg width="40" height="40" viewBox="0 0 40 40" fill="none" xmlns="http://www.w3.org/2000/svg">
<g clip-path="url(#clip0_5808_1134)">
<path d="M27.0375 0H12.9625C5.80351 0 0 5.80351 0 12.9625V27.0375C0 34.1965 5.80351 40 12.9625 40H27.0375C34.1965 40 40 34.1965 40 27.0375V12.9625C40 5.80351 34.1965 0 27.0375 0Z" fill="#C3F432"/>
<path d="M16.9059 19.8812V20.15C16.9059 20.5125 17.1496 20.6938 17.5996 20.6938H28.1934C31.4809 20.6938 32.9309 22.0187 32.9309 24.8875V26.5187C32.9309 29.0875 31.5434 30.625 28.1934 30.625H7.06836V9.375H28.1996C31.5496 9.375 32.9371 10.9125 32.9371 13.4812V15.1125C32.9371 17.9813 31.4871 19.275 28.1996 19.275H17.6059C17.1559 19.275 16.9121 19.4875 16.9121 19.8812H16.9059ZM11.0809 26.8188H28.0746C28.7684 26.8188 28.9496 26.6063 28.9496 26.0312V25.3375C28.9496 24.7313 28.7684 24.4937 28.0746 24.4937H17.5121C14.2246 24.4937 12.8934 23.2563 12.8934 20.4813V19.4875C12.8934 16.7688 14.2184 15.5 17.5121 15.5H28.0746C28.7684 15.5 28.9496 15.2562 28.9496 14.625V13.9625C28.9496 13.3875 28.7684 13.15 28.0746 13.15H11.0809V26.825V26.8188Z" fill="#121316"/>
</g>
<defs>
<clipPath id="clip0_5808_1134">
<rect width="40" height="40" fill="white"/>
</clipPath>
</defs>
</svg>
