<?xml version="1.0" encoding="UTF-8"?><svg id="_圖層_1" xmlns="http://www.w3.org/2000/svg" viewBox="0 0 64 64"><defs><style>.cls-1{fill:#333;}.cls-1,.cls-2{stroke-width:0px;}.cls-2{fill:#c3f432;}</style></defs><rect class="cls-2" width="64" height="64" rx="20.74" ry="20.74"/><path class="cls-1" d="M27.05,31.81v.43c0,.58.39.87,1.11.87h16.95c5.26,0,7.58,2.12,7.58,6.71v2.61c0,4.11-2.22,6.57-7.58,6.57H11.31V15h33.81c5.36,0,7.58,2.46,7.58,6.57v2.61c0,4.59-2.32,6.66-7.58,6.66h-16.95c-.72,0-1.11.34-1.11.97ZM17.73,42.91h27.19c1.11,0,1.4-.34,1.4-1.26v-1.11c0-.97-.29-1.35-1.4-1.35h-16.9c-5.26,0-7.39-1.98-7.39-6.42v-1.59c0-4.35,2.12-6.38,7.39-6.38h16.9c1.11,0,1.4-.39,1.4-1.4v-1.06c0-.92-.29-1.3-1.4-1.3h-27.19v21.88Z"/></svg>